<?xml version="1.0" encoding="UTF-8" standalone="no"?>
<svg
   xmlns:osb="http://www.openswatchbook.org/uri/2009/osb"
   xmlns:dc="http://purl.org/dc/elements/1.1/"
   xmlns:cc="http://creativecommons.org/ns#"
   xmlns:rdf="http://www.w3.org/1999/02/22-rdf-syntax-ns#"
   xmlns:svg="http://www.w3.org/2000/svg"
   xmlns="http://www.w3.org/2000/svg"
   xmlns:xlink="http://www.w3.org/1999/xlink"
   xmlns:sodipodi="http://sodipodi.sourceforge.net/DTD/sodipodi-0.dtd"
   xmlns:inkscape="http://www.inkscape.org/namespaces/inkscape"
   width="120"
   height="120"
   viewBox="0 0 31.75 31.75"
   version="1.1"
   id="svg8"
   inkscape:version="1.0.1 (3bc2e813f5, 2020-09-07)"
   sodipodi:docname="braces.svg">
  <defs
     id="defs2">
    <rect
       x="6.551816"
       y="2.8524843"
       width="19.338261"
       height="27.192407"
       id="rect1677" />
    <linearGradient
       id="linearGradient1604"
       osb:paint="solid">
      <stop
         style="stop-color:#000000;stop-opacity:1;"
         offset="0"
         id="stop1602" />
    </linearGradient>
    <rect
       x="-0.98471864"
       y="10.073465"
       width="34.73628"
       height="25.324274"
       id="rect1596" />
    <rect
       x="0.71754462"
       y="-0.90683266"
       width="35.929836"
       height="35.624943"
       id="rect1525" />
    <rect
       x="1.0918019"
       y="4.2249922"
       width="29.957563"
       height="22.93934"
       id="rect1519" />
    <linearGradient
       inkscape:collect="always"
       xlink:href="#linearGradient1604"
       id="linearGradient1606"
       x1="3.2211924"
       y1="16.0752"
       x2="10.876752"
       y2="16.0752"
       gradientUnits="userSpaceOnUse" />
  </defs>
  <sodipodi:namedview
     id="base"
     pagecolor="#ffffff"
     bordercolor="#666666"
     borderopacity="1.0"
     inkscape:pageopacity="0.0"
     inkscape:pageshadow="2"
     inkscape:zoom="2.8"
     inkscape:cx="42.262699"
     inkscape:cy="33.050486"
     inkscape:document-units="mm"
     inkscape:current-layer="layer1"
     inkscape:document-rotation="0"
     showgrid="false"
     inkscape:window-width="1900"
     inkscape:window-height="1025"
     inkscape:window-x="10"
     inkscape:window-y="10"
     inkscape:window-maximized="0"
     units="px" />
  <metadata
     id="metadata5">
    <rdf:RDF>
      <cc:Work
         rdf:about="">
        <dc:format>image/svg+xml</dc:format>
        <dc:type
           rdf:resource="http://purl.org/dc/dcmitype/StillImage" />
        <dc:title></dc:title>
      </cc:Work>
    </rdf:RDF>
  </metadata>
  <g
     inkscape:label="Layer 1"
     inkscape:groupmode="layer"
     id="layer1">
    <g
       aria-label="{}"
       transform="matrix(2.6190598,0,0,2.6190598,-17.917958,-6.9723437)"
       id="text1675"
       style="font-style:normal;font-weight:normal;font-size:10.5833px;line-height:1.25;font-family:sans-serif;white-space:pre;shape-inside:url(#rect1677);fill:#000000;fill-opacity:1;stroke:none">
      <path
         d="m 11.209386,13.681774 q -0.571498,0 -1.02658,-0.243416 Q 9.7383076,13.194942 9.4948917,12.750444 9.2620591,12.316528 9.3043923,11.723863 l 0.105833,-1.534578 Q 9.4313919,9.8506194 9.2197259,9.6495367 9.0080599,9.448454 8.6693943,9.448454 H 7.3464818 V 7.9667921 h 1.3229125 q 0.3386656,0 0.5503316,-0.2010827 0.211666,-0.211666 0.1904994,-0.5397483 L 9.3043923,5.6278828 Q 9.2726424,5.0458014 9.505475,4.6224694 9.7383076,4.1885541 10.182806,3.9557215 10.627305,3.7228889 11.209386,3.7228889 h 0.899581 v 1.481662 h -0.582082 q -0.296332,0 -0.476248,0.1481662 -0.179916,0.1481662 -0.15875,0.4868317 l 0.105833,1.5980783 q 0.03175,0.4868318 -0.296332,0.8254974 -0.317499,0.3280822 -0.8889973,0.4339152 0.5714983,0.09525 0.8889973,0.4339153 0.328082,0.3386656 0.296332,0.846664 l -0.105833,1.587495 q -0.01058,0.285749 0.169333,0.465665 0.179916,0.169333 0.465665,0.169333 h 0.582082 v 1.481662 z"
         style="font-style:normal;font-variant:normal;font-weight:800;font-stretch:normal;font-family:'JetBrains Mono';-inkscape-font-specification:'JetBrains Mono Ultra-Bold'"
         id="path1681" />
      <path
         d="m 13.696446,13.681774 v -1.481662 h 0.582081 q 0.285749,0 0.465665,-0.169333 0.1905,-0.179916 0.169333,-0.465665 L 14.807692,9.977619 Q 14.775942,9.4696206 15.093441,9.130955 15.421523,8.7922894 15.993022,8.6970397 15.421523,8.5912067 15.093441,8.2631245 14.775942,7.9244589 14.807692,7.4376271 L 14.913525,5.8395488 Q 14.934692,5.5008833 14.754775,5.3527171 14.585443,5.2045509 14.278527,5.2045509 h -0.582081 v -1.481662 h 0.89958 q 0.582081,0 1.02658,0.2328326 0.444499,0.2328326 0.677331,0.6667479 0.243416,0.423332 0.201083,1.0054134 l -0.105833,1.5980783 q -0.02117,0.3280823 0.190499,0.5397483 0.22225,0.2010827 0.550332,0.2010827 H 18.45893 V 9.448454 h -1.322912 q -0.328082,0 -0.550332,0.2010827 -0.211666,0.2010827 -0.190499,0.5397483 l 0.105833,1.534578 q 0.04233,0.592665 -0.201083,1.026581 -0.232832,0.444498 -0.677331,0.687914 -0.444499,0.243416 -1.02658,0.243416 z"
         style="font-style:normal;font-variant:normal;font-weight:800;font-stretch:normal;font-family:'JetBrains Mono';-inkscape-font-specification:'JetBrains Mono Ultra-Bold'"
         id="path1683" />
    </g>
  </g>
</svg>
