<?xml version="1.0" encoding="UTF-8" standalone="no"?>
<svg
   xmlns:dc="http://purl.org/dc/elements/1.1/"
   xmlns:cc="http://creativecommons.org/ns#"
   xmlns:rdf="http://www.w3.org/1999/02/22-rdf-syntax-ns#"
   xmlns:svg="http://www.w3.org/2000/svg"
   xmlns="http://www.w3.org/2000/svg"
   xmlns:sodipodi="http://sodipodi.sourceforge.net/DTD/sodipodi-0.dtd"
   xmlns:inkscape="http://www.inkscape.org/namespaces/inkscape"
   width="120"
   height="120"
   viewBox="0 0 31.75 31.75"
   version="1.1"
   id="svg8"
   inkscape:version="1.0.1 (3bc2e813f5, 2020-09-07)"
   sodipodi:docname="numpy.svg">
  <defs
     id="defs2">
    <style
       id="style1316">.cls-1{fill:#4d77cf;}.cls-2{fill:#4dabcf;}</style>
  </defs>
  <sodipodi:namedview
     id="base"
     pagecolor="#ffffff"
     bordercolor="#666666"
     borderopacity="1.0"
     inkscape:pageopacity="0.0"
     inkscape:pageshadow="2"
     inkscape:zoom="2.8"
     inkscape:cx="70.223686"
     inkscape:cy="23.751282"
     inkscape:document-units="mm"
     inkscape:current-layer="Layer_1"
     inkscape:document-rotation="0"
     showgrid="false"
     inkscape:window-width="1900"
     inkscape:window-height="1025"
     inkscape:window-x="10"
     inkscape:window-y="10"
     inkscape:window-maximized="0"
     units="px" />
  <metadata
     id="metadata5">
    <rdf:RDF>
      <cc:Work
         rdf:about="">
        <dc:format>image/svg+xml</dc:format>
        <dc:type
           rdf:resource="http://purl.org/dc/dcmitype/StillImage" />
        <dc:title></dc:title>
      </cc:Work>
    </rdf:RDF>
  </metadata>
  <g
     inkscape:label="Layer 1"
     inkscape:groupmode="layer"
     id="layer1">
    <g
       id="Layer_1"
       data-name="Layer 1"
       transform="matrix(0.26458333,0,0,0.26458333,-16.62223,20.030171)">
      <g
         id="g1380"
         transform="matrix(1.1660676,0,0,1.1660676,-18.216166,6.9966047)"
         style="fill:#000000">
        <polygon
           class="cls-2"
           points="95.25,77.66 54.49,98 92.63,117.15 132.38,96.4 "
           id="polygon1330"
           transform="matrix(0.4437239,0,0,0.4437239,55.549277,-91.515606)"
           style="fill:#000000" />
        <polygon
           class="cls-2"
           points="188.34,124.65 147.95,144.93 109.75,125.75 149.41,104.99 "
           id="polygon1332"
           transform="matrix(0.4437239,0,0,0.4437239,55.549277,-91.515606)"
           style="fill:#000000" />
        <polygon
           class="cls-2"
           points="241.41,98 205.63,115.96 166.62,96.28 201.41,77.94 "
           id="polygon1334"
           transform="matrix(0.4437239,0,0,0.4437239,55.549277,-91.515606)"
           style="fill:#000000" />
        <polygon
           class="cls-2"
           points="148.18,51.24 112.56,69.02 149.67,87.73 184.19,69.3 "
           id="polygon1336"
           transform="matrix(0.4437239,0,0,0.4437239,55.549277,-91.515606)"
           style="fill:#000000" />
        <polygon
           class="cls-2"
           points="156.04,273.5 199.66,251.73 199.62,202.57 156.04,224.36 "
           id="polygon1338"
           transform="matrix(0.4437239,0,0,0.4437239,55.549277,-91.515606)"
           style="fill:#000000" />
        <polygon
           class="cls-2"
           points="199.55,136.77 156.04,158.4 156.04,207.06 199.6,185.41 "
           id="polygon1340"
           transform="matrix(0.4437239,0,0,0.4437239,55.549277,-91.515606)"
           style="fill:#000000" />
        <polygon
           class="cls-2"
           points="251.97,225.63 214.76,244.19 214.73,195.09 251.97,176.3 "
           id="polygon1342"
           transform="matrix(0.4437239,0,0,0.4437239,55.549277,-91.515606)"
           style="fill:#000000" />
        <polygon
           class="cls-2"
           points="251.97,110.71 214.69,129.24 214.72,177.98 251.97,159.05 "
           id="polygon1344"
           transform="matrix(0.4437239,0,0,0.4437239,55.549277,-91.515606)"
           style="fill:#000000" />
        <path
           class="cls-1"
           d="M 117.95461,-21.229742 104.918,-27.787981 V 0.53935324 c 0,0 -15.947438,-33.92713024 -17.420602,-36.97551324 -0.190801,-0.394915 -0.971755,-0.825327 -1.171431,-0.93182 -2.875331,-1.499787 -11.252838,-5.741788 -11.252838,-5.741788 V 6.9556005 l 11.590068,6.2121345 v -26.17971 c 0,0 15.774383,30.315217 15.938563,30.648009 0.16418,0.332793 1.7394,3.523168 3.43442,4.64579 2.24968,1.495349 11.90955,7.303695 11.90955,7.303695 z"
           id="path1346"
           style="stroke-width:0.443724;fill:#000000" />
      </g>
    </g>
  </g>
</svg>
