<?xml version="1.0" encoding="UTF-8" standalone="no"?>
<svg
   xmlns:osb="http://www.openswatchbook.org/uri/2009/osb"
   xmlns:dc="http://purl.org/dc/elements/1.1/"
   xmlns:cc="http://creativecommons.org/ns#"
   xmlns:rdf="http://www.w3.org/1999/02/22-rdf-syntax-ns#"
   xmlns:svg="http://www.w3.org/2000/svg"
   xmlns="http://www.w3.org/2000/svg"
   xmlns:xlink="http://www.w3.org/1999/xlink"
   xmlns:sodipodi="http://sodipodi.sourceforge.net/DTD/sodipodi-0.dtd"
   xmlns:inkscape="http://www.inkscape.org/namespaces/inkscape"
   width="120"
   height="120"
   viewBox="0 0 31.75 31.75"
   version="1.1"
   id="svg8"
   inkscape:version="1.0.1 (3bc2e813f5, 2020-09-07)"
   sodipodi:docname="webplay.svg">
  <defs
     id="defs2">
    <rect
       x="6.551816"
       y="2.8524843"
       width="19.338261"
       height="27.192407"
       id="rect1677" />
    <linearGradient
       id="linearGradient1604"
       osb:paint="solid">
      <stop
         style="stop-color:#000000;stop-opacity:1;"
         offset="0"
         id="stop1602" />
    </linearGradient>
    <rect
       x="-0.98471864"
       y="10.073465"
       width="34.73628"
       height="25.324274"
       id="rect1596" />
    <rect
       x="0.71754462"
       y="-0.90683266"
       width="35.929836"
       height="35.624943"
       id="rect1525" />
    <rect
       x="1.0918019"
       y="4.2249922"
       width="29.957563"
       height="22.93934"
       id="rect1519" />
    <linearGradient
       inkscape:collect="always"
       xlink:href="#linearGradient1604"
       id="linearGradient1606"
       x1="3.2211924"
       y1="16.0752"
       x2="10.876752"
       y2="16.0752"
       gradientUnits="userSpaceOnUse" />
  </defs>
  <sodipodi:namedview
     id="base"
     pagecolor="#ffffff"
     bordercolor="#666666"
     borderopacity="1.0"
     inkscape:pageopacity="0.0"
     inkscape:pageshadow="2"
     inkscape:zoom="1.979899"
     inkscape:cx="-95.380572"
     inkscape:cy="26.010953"
     inkscape:document-units="mm"
     inkscape:current-layer="g1770"
     inkscape:document-rotation="0"
     showgrid="false"
     inkscape:window-width="1900"
     inkscape:window-height="1025"
     inkscape:window-x="10"
     inkscape:window-y="10"
     inkscape:window-maximized="0"
     units="px" />
  <metadata
     id="metadata5">
    <rdf:RDF>
      <cc:Work
         rdf:about="">
        <dc:format>image/svg+xml</dc:format>
        <dc:type
           rdf:resource="http://purl.org/dc/dcmitype/StillImage" />
        <dc:title></dc:title>
      </cc:Work>
    </rdf:RDF>
  </metadata>
  <g
     inkscape:label="Layer 1"
     inkscape:groupmode="layer"
     id="layer1">
    <g
       id="g1770"
       transform="matrix(0.9824839,0,0,0.9824839,0.8946482,0.98091833)">
      <path
         id="path1747"
         style="color:#000000;font-style:normal;font-variant:normal;font-weight:normal;font-stretch:normal;font-size:medium;line-height:normal;font-family:sans-serif;font-variant-ligatures:normal;font-variant-position:normal;font-variant-caps:normal;font-variant-numeric:normal;font-variant-alternates:normal;font-variant-east-asian:normal;font-feature-settings:normal;font-variation-settings:normal;text-indent:0;text-align:start;text-decoration:none;text-decoration-line:none;text-decoration-style:solid;text-decoration-color:#000000;letter-spacing:normal;word-spacing:normal;text-transform:none;writing-mode:lr-tb;direction:ltr;text-orientation:mixed;dominant-baseline:auto;baseline-shift:baseline;text-anchor:start;white-space:normal;shape-padding:0;shape-margin:0;inline-size:0;clip-rule:nonzero;display:inline;overflow:visible;visibility:visible;opacity:1;isolation:auto;mix-blend-mode:normal;color-interpolation:sRGB;color-interpolation-filters:linearRGB;solid-color:#000000;solid-opacity:1;vector-effect:none;fill:#000000;fill-opacity:1;fill-rule:nonzero;stroke:none;stroke-width:2.64583;stroke-linecap:butt;stroke-linejoin:miter;stroke-miterlimit:4;stroke-dasharray:none;stroke-dashoffset:0;stroke-opacity:1;paint-order:stroke markers fill;color-rendering:auto;image-rendering:auto;shape-rendering:auto;text-rendering:auto;enable-background:accumulate;stop-color:#000000;stop-opacity:1"
         d="M 15.246902,0.34809561 C 7.0823158,0.3480958 0.4359041,6.9945081 0.4359038,15.159093 c 0,8.164587 6.646412,14.81205 14.8109982,14.81205 8.164586,0 14.812049,-6.647463 14.812049,-14.81205 0,-8.1645852 -6.647463,-14.81099739 -14.812049,-14.81099739 z m 0,2.64461429 c 0.276795,0 0.549996,0.012444 0.822102,0.030507 0.448443,0.5167849 1.528394,1.8586004 2.522588,3.8043948 a 8.9781591,8.9781591 0 0 1 5.29554,5.8898943 h 3.281574 c 0.159671,0.788367 0.244054,1.605097 0.244054,2.441587 0,0.700165 -0.06185,1.385013 -0.174626,2.052364 h -3.25054 a 8.9781591,8.9781591 0 0 1 -1.088247,2.644615 h 3.576646 c -1.233216,2.955503 -3.59666,5.314243 -6.555256,6.541581 0.867288,-1.515414 1.81853,-3.506922 2.483665,-5.817311 a 8.9781591,8.9781591 0 0 1 -4.00374,2.985448 c -0.845985,1.738493 -1.721973,3.044837 -2.208579,3.719187 -0.312369,0.02388 -0.62654,0.03997 -0.945181,0.03997 -0.283415,0 -0.563605,-0.01317 -0.84209,-0.03208 C 13.902782,26.588875 13.05752,25.30266 12.242519,23.61944 A 8.9781591,8.9781591 0 0 1 8.3103114,20.858059 C 8.9656597,23.071588 9.8803491,24.9837 10.718762,26.454985 7.6926828,25.245305 5.2718189,22.859798 4.0188618,19.856072 H 7.5955081 A 8.9781591,8.9781591 0 0 1 6.507261,17.211457 H 3.2572465 C 3.1445133,16.544106 3.0826221,15.859258 3.0826221,15.159093 c 0,-0.83649 0.084435,-1.65322 0.2440536,-2.441587 H 6.6077228 A 8.9781591,8.9781591 0 0 1 7.8511332,10.070788 H 4.1924345 C 5.4987045,7.2269305 7.866688,4.9803326 10.795029,3.8326959 9.8677534,5.2888793 8.8461819,7.2640245 8.1688234,9.6373819 A 8.9781591,8.9781591 0 0 1 12.169934,6.7255715 c 1.093676,-2.0888371 2.252398,-3.4148151 2.529951,-3.7191863 0.181446,-0.00798 0.363549,-0.013674 0.547017,-0.013675 z m 4.767985,0.9662206 c 2.783287,1.1821949 5.028104,3.3707788 6.287533,6.1118575 H 22.646352 C 22.009891,7.5841928 20.972704,5.5030943 20.014887,3.9589305 Z" />
      <path
         sodipodi:type="star"
         style="fill:#000000;fill-opacity:1;stroke:none;stroke-width:2.693;stroke-miterlimit:4;stroke-dasharray:none;stroke-opacity:1;paint-order:stroke markers fill"
         id="path1871"
         sodipodi:sides="3"
         sodipodi:cx="14.386753"
         sodipodi:cy="15.159619"
         sodipodi:r1="5.5971041"
         sodipodi:r2="2.7985525"
         sodipodi:arg1="2.0943951"
         sodipodi:arg2="3.1415927"
         inkscape:flatsided="false"
         inkscape:rounded="0"
         inkscape:randomized="0"
         d="m 11.588201,20.006854 0,-4.847235 0,-4.847234 4.197828,2.423617 4.197828,2.423617 -4.197828,2.423618 z"
         inkscape:transform-center-x="-1.3747664" />
    </g>
  </g>
</svg>
